<?xml version="1.0" encoding="UTF-8" standalone="no"?>
<svg
   xmlns:dc="http://purl.org/dc/elements/1.1/"
   xmlns:cc="http://creativecommons.org/ns#"
   xmlns:rdf="http://www.w3.org/1999/02/22-rdf-syntax-ns#"
   xmlns:svg="http://www.w3.org/2000/svg"
   xmlns="http://www.w3.org/2000/svg"
   xmlns:sodipodi="http://sodipodi.sourceforge.net/DTD/sodipodi-0.dtd"
   xmlns:inkscape="http://www.inkscape.org/namespaces/inkscape"
   id="svg2"
   viewBox="0 0 1000 1000"
   height="1000"
   width="1000"
   version="1.1"
   sodipodi:docname="community_centre.svg"
   inkscape:version="0.92.2 2405546, 2018-03-11">
  <sodipodi:namedview
     pagecolor="#ffffff"
     bordercolor="#666666"
     borderopacity="1"
     objecttolerance="10"
     gridtolerance="10"
     guidetolerance="10"
     inkscape:pageopacity="0"
     inkscape:pageshadow="2"
     inkscape:window-width="1366"
     inkscape:window-height="708"
     id="namedview7"
     showgrid="false"
     inkscape:zoom="0.26339286"
     inkscape:cx="480.8208"
     inkscape:cy="341.92708"
     inkscape:window-x="0"
     inkscape:window-y="31"
     inkscape:window-maximized="1"
     inkscape:current-layer="svg2"
     fit-margin-top="0"
     fit-margin-left="0"
     fit-margin-right="0"
     fit-margin-bottom="0" />
  <metadata
     id="metadata8">
    <rdf:RDF>
      <cc:Work
         rdf:about="">
        <dc:format>image/svg+xml</dc:format>
        <dc:type
           rdf:resource="http://purl.org/dc/dcmitype/StillImage" />
        <dc:title></dc:title>
      </cc:Work>
    </rdf:RDF>
  </metadata>
  <defs
     id="defs6" />
  <rect
     style="visibility:hidden;fill:#e6e6e6;fill-opacity:1;stroke:none;stroke-width:71.42857361"
     id="canvas"
     y="0"
     x="0"
     height="1000"
     width="1000" />
  <path
     d="m 819.53614,178.57143 c 0,59.17336 -47.12221,107.14286 -105.25043,107.14286 -58.1282,0 -105.25044,-47.9695 -105.25044,-107.14286 0,-59.17337 47.12224,-107.14286 105.25044,-107.14286 58.12822,0 105.25043,47.96949 105.25043,107.14286 z m -605.25043,250 H 357.14286 V 642.85714 H 214.28571 Z m 176.67902,-250 c 0,59.17336 -47.12224,107.14286 -105.25044,107.14286 -58.12821,0 -105.25045,-47.9695 -105.25045,-107.14286 0,-59.17337 47.12224,-107.14286 105.25045,-107.14286 58.1282,0 105.25044,47.96949 105.25044,107.14286 z M 0,357.14286 h 500 v 71.42857 H 0 Z M 71.428571,928.57143 214.28571,642.85714 h 71.42858 L 142.85714,928.57143 Z M 500,928.57143 357.14286,642.85714 h -71.42857 l 142.85714,285.71429 z m 142.85714,-500 H 785.71429 V 642.85714 H 642.85714 Z M 500,357.14286 h 500 v 71.42857 H 500 Z m 0,571.42857 142.85714,-285.71429 h 71.42857 L 571.42857,928.57143 Z m 428.57143,0 -142.85714,-285.71429 h -71.42858 l 142.85715,285.71429 z"
     style="fill:#000000;fill-opacity:1;fill-rule:evenodd;stroke:none;stroke-width:71.42857361;stroke-opacity:1"
     id="path4139-0"
     inkscape:connector-curvature="0" />
</svg>
