<?xml version="1.0" encoding="UTF-8" standalone="no"?>
<svg
   xmlns:dc="http://purl.org/dc/elements/1.1/"
   xmlns:cc="http://creativecommons.org/ns#"
   xmlns:rdf="http://www.w3.org/1999/02/22-rdf-syntax-ns#"
   xmlns:svg="http://www.w3.org/2000/svg"
   xmlns="http://www.w3.org/2000/svg"
   xmlns:sodipodi="http://sodipodi.sourceforge.net/DTD/sodipodi-0.dtd"
   xmlns:inkscape="http://www.inkscape.org/namespaces/inkscape"
   width="536.62299"
   height="505.10373"
   viewBox="0 0 141.98142 133.64203"
   version="1.1"
   id="svg4"
   sodipodi:docname="voc.svg"
   inkscape:version="0.92.4 5da689c313, 2019-01-14">
  <metadata
     id="metadata10">
    <rdf:RDF>
      <cc:Work
         rdf:about="">
        <dc:format>image/svg+xml</dc:format>
        <dc:type
           rdf:resource="http://purl.org/dc/dcmitype/StillImage" />
        <dc:title></dc:title>
      </cc:Work>
    </rdf:RDF>
  </metadata>
  <defs
     id="defs8" />
  <sodipodi:namedview
     pagecolor="#ffffff"
     bordercolor="#666666"
     borderopacity="1"
     objecttolerance="10"
     gridtolerance="10"
     guidetolerance="10"
     inkscape:pageopacity="0"
     inkscape:pageshadow="2"
     inkscape:window-width="1366"
     inkscape:window-height="708"
     id="namedview6"
     showgrid="false"
     units="px"
     fit-margin-top="2"
     fit-margin-left="2"
     fit-margin-right="2"
     fit-margin-bottom="2"
     inkscape:zoom="0.44152926"
     inkscape:cx="551.92969"
     inkscape:cy="183.45284"
     inkscape:window-x="0"
     inkscape:window-y="31"
     inkscape:window-maximized="1"
     inkscape:current-layer="svg4"
     inkscape:snap-page="true" />
  <path
     style="fill:#231f20;fill-opacity:1;stroke-width:1.43364644"
     inkscape:connector-curvature="0"
     id="path4494"
     d="M 70.988596,0.52916652 C 32.07656,0.52916652 0.52916652,32.076587 0.52916652,70.992907 a 70.463719,70.463719 0 0 0 4.60487298,24.97415 c 1.032228,-2.70242 2.216418,-5.34036 3.708843,-7.81766 0.759837,-1.26161 1.5956525,-2.48452 2.1533415,-3.84222 0.559118,-1.36194 0.817174,-2.89883 0.389956,-4.30522 -0.243702,-0.79997 -0.702486,-1.52254 -1.198533,-2.19348 -0.4974585,-0.67383 -1.0422555,-1.31037 -1.4952895,-2.01425 -1.15265,-1.78775 -1.68167,-3.98842 -1.382038,-6.09304 0.301096,-2.10745 1.436517,-4.10023 3.1482925,-5.36472 1.525399,-1.12681 3.452216,-1.63433 5.356099,-1.56265 a 9.5480849,9.5480849 0 0 1 1.878077,0.25816 c 2.46014,0.59785 4.630679,2.13615 6.240656,4.08587 1.995641,2.4229 3.168366,5.48804 3.455096,8.6134 0.289576,3.12535 -0.286742,6.30804 -1.493858,9.20399 -2.164812,5.18981 -6.253564,9.37889 -8.50439,14.53141 -1.837936,4.209203 -2.365521,8.902973 -2.114628,13.490653 0.03423,0.42717 0.09174,0.85159 0.129025,1.27883 a 70.463719,70.463719 0 0 0 19.671051,17.28546 95.810586,95.810586 0 0 1 -0.69962,-11.46916 c 0.01,-3.05085 0.1649,-6.093 0.45877,-9.10367 -1.8537,-1.27596 -3.53681,-2.76692 -4.73104,-4.66365 -2.124654,-3.37911 -2.526086,-7.655653 -1.65156,-11.550863 0.87453,-3.89526 2.93898,-7.44352 5.41918,-10.57029 4.09163,-5.15399 9.43627,-9.32442 15.40884,-12.08564 -0.17201,-0.23641 -0.34409,-0.47881 -0.48746,-0.68241 -2.19922,-3.55978 -3.49811,-7.6614 -3.81351,-11.83478 -0.32109,-4.22066 0.34409,-8.44707 0.62364,-12.66914 0.20072,-2.9447 0.21218,-5.89228 0.38425,-8.83844 0.20071,-3.40776 0.61647,-6.81986 1.57271,-10.09571 0.34697,-1.18704 0.77131,-2.37267 1.44512,-3.4121 a 7.6126626,7.6126626 0 0 1 3.23001,-2.80133 c 1.4867,-0.58778 2.77841,-0.71398 4.21492,-0.47338 1.2014,0.25816 2.31246,0.85301 3.28592,1.6057 0.97487,0.74833 1.81644,1.65298 2.61211,2.59061 a 39.661828,39.661828 0 0 1 5.639966,8.78252 19.408705,19.408705 0 0 1 5.93529,0 39.601614,39.601614 0 0 1 5.64283,-8.78399 c 0.79425,-0.93758 1.63866,-1.84222 2.61212,-2.59202 0.97487,-0.75122 2.08451,-1.34765 3.28734,-1.60282 a 6.8915384,6.8915384 0 0 1 4.2393,0.47338 7.6212644,7.6212644 0 0 1 3.23,2.80997 c 0.67381,1.0365 1.09817,2.21642 1.44512,3.40487 0.95481,3.27591 1.37057,6.68795 1.57127,10.09288 0.17207,2.94758 0.18637,5.90375 0.38707,8.84562 0.27958,4.22348 0.9505,8.44414 0.63081,12.66338 a 26.386262,26.386262 0 0 1 -3.82497,11.8376 c -0.17206,0.2723 -0.38136,0.52014 -0.55912,0.78857 1.33903,1.50818 3.25007,2.78985 4.88014,3.33747 a 10.629054,10.629054 0 0 0 5.697304,0.23207 8.9703255,8.9703255 0 0 0 2.9017,-1.23003 6.8098209,6.8098209 0 0 0 2.15764,-2.27092 c 0.64514,-1.1326 0.90319,-2.4372 1.04657,-3.73462 0.36555,-3.3089 0,-6.65214 -0.27241,-9.96962 -0.18636,-2.15332 -0.33685,-4.34392 0.1462,-6.45137 0.32691,-1.42651 0.96629,-2.82144 2.03579,-3.81782 a 6.0098459,6.0098459 0 0 1 2.52609,-1.37629 7.1309573,7.1309573 0 0 1 2.88162,-0.15761 c 2.06445,0.3011 3.997,1.48238 5.14966,3.21851 0.65517,0.98633 1.05374,2.12609 1.29314,3.28737 0.23794,1.16123 0.32545,2.34398 0.38991,3.52678 0.22365,4.1332 0.21506,8.27213 0.10038,12.41104 -0.0961,3.61282 -0.30104,7.32597 -1.74618,10.63768 -1.85801,4.25077 -5.59983,7.4234 -9.64127,9.70293 a 38.32567,38.32567 0 0 1 -8.62482,3.52677 c 2.61927,8.360993 3.98267,17.612323 3.98267,26.995563 a 95.648588,95.648588 0 0 1 -0.73115,11.55232 70.460855,70.460855 0 0 0 34.69426,-60.611733 C 141.44829,32.078007 109.90064,0.53204652 70.988596,0.53204652 Z M 51.28168,87.388127 v 8.05995 a 10.217598,10.217598 0 0 1 5.88799,1.96983 9.4448626,9.4448626 0 0 1 3.02213,3.698793 c 0.65948,1.4695 0.90319,3.12965 0.6308,4.71671 a 8.114439,8.114439 0 0 1 -1.80352,3.84793 8.9502548,8.9502548 0 0 1 -3.45509,2.48875 9.44773,9.44773 0 0 1 -4.28231,0.66382 v 20.27892 L 93.468176,110.23901 51.28025,87.386667 Z" />
</svg>
