<?xml version="1.0" encoding="UTF-8" standalone="no"?>
<!-- Generator: Adobe Illustrator 21.0.0, SVG Export Plug-In . SVG Version: 6.00 Build 0)  -->

<svg
   xmlns:dc="http://purl.org/dc/elements/1.1/"
   xmlns:cc="http://creativecommons.org/ns#"
   xmlns:rdf="http://www.w3.org/1999/02/22-rdf-syntax-ns#"
   xmlns:svg="http://www.w3.org/2000/svg"
   xmlns="http://www.w3.org/2000/svg"
   xmlns:xlink="http://www.w3.org/1999/xlink"
   xmlns:sodipodi="http://sodipodi.sourceforge.net/DTD/sodipodi-0.dtd"
   xmlns:inkscape="http://www.inkscape.org/namespaces/inkscape"
   version="1.1"
   id="Layer_1"
   x="0px"
   y="0px"
   viewBox="0 0 313.70079 60.489393"
   xml:space="preserve"
   sodipodi:docname="facebook.svg"
   width="83mm"
   height="16.004484mm"
   inkscape:version="0.92.4 5da689c313, 2019-01-14"><metadata
   id="metadata33"><rdf:RDF><cc:Work
       rdf:about=""><dc:format>image/svg+xml</dc:format><dc:type
         rdf:resource="http://purl.org/dc/dcmitype/StillImage" /><dc:title></dc:title></cc:Work></rdf:RDF></metadata><defs
   id="defs31" /><sodipodi:namedview
   pagecolor="#ffffff"
   bordercolor="#666666"
   borderopacity="1"
   objecttolerance="10"
   gridtolerance="10"
   guidetolerance="10"
   inkscape:pageopacity="0"
   inkscape:pageshadow="2"
   inkscape:window-width="1366"
   inkscape:window-height="708"
   id="namedview29"
   showgrid="false"
   units="mm"
   inkscape:document-units="mm"
   fit-margin-top="0"
   fit-margin-left="0"
   fit-margin-right="0"
   fit-margin-bottom="0"
   inkscape:zoom="0.59189804"
   inkscape:cx="27.640638"
   inkscape:cy="131.44911"
   inkscape:window-x="0"
   inkscape:window-y="31"
   inkscape:window-maximized="1"
   inkscape:current-layer="Layer_1" />
<style
   type="text/css"
   id="style2">
	.st0{clip-path:url(#SVGID_2_);fill:#4967A9;}
</style>
<g
   id="g26"
   transform="scale(4.6891)">
	<defs
   id="defs5">
		<rect
   id="SVGID_1_"
   y="0"
   width="66.900002"
   height="12.9"
   x="0" />
	</defs>
	<clipPath
   id="SVGID_2_">
		<use
   xlink:href="#SVGID_1_"
   style="overflow:visible"
   id="use7"
   x="0"
   y="0"
   width="100%"
   height="100%" />
	</clipPath>
	<path
   class="st0"
   d="m 5.2,2 c -0.8,0 -1,0.4 -1,1.1 V 4.4 H 6.3 L 6.1,6.5 H 4.2 v 6.3 H 1.7 V 6.5 H 0 V 4.4 H 1.7 V 3.2 C 1.7,1.1 2.5,0 4.9,0 5.4,0 6,0 6.3,0.1 V 2"
   clip-path="url(#SVGID_2_)"
   id="path10"
   inkscape:connector-curvature="0"
   style="fill:#4967a9" />
	<path
   class="st0"
   d="M 6.5,8.3 C 6.5,6 7.6,4.2 9.9,4.2 c 1.3,0 2,0.6 2.4,1.5 V 4.4 h 2.4 v 8.3 h -2.4 v -1.3 c -0.4,0.8 -1.1,1.4 -2.4,1.4 -2.3,0 -3.4,-1.7 -3.4,-4.1 M 9,8.9 c 0,1.2 0.5,2.1 1.6,2.1 1,0 1.6,-0.8 1.6,-1.9 V 8.2 C 12.2,7 11.7,6.3 10.6,6.3 9.5,6.2 9,7.1 9,8.3 Z"
   clip-path="url(#SVGID_2_)"
   id="path12"
   inkscape:connector-curvature="0"
   style="fill:#4967a9" />
	<path
   class="st0"
   d="m 20,4.3 c 1,0 1.9,0.2 2.4,0.6 l -0.6,1.8 c -0.4,-0.2 -1,-0.4 -1.7,-0.4 -1.4,0 -2,0.8 -2,2.1 v 0.5 c 0,1.3 0.6,2.1 2,2.1 0.7,0 1.3,-0.2 1.7,-0.4 l 0.6,1.8 C 21.9,12.8 21,13 20,13 17,13 15.7,11.4 15.7,8.9 V 8.4 C 15.7,5.8 17,4.3 20,4.3"
   clip-path="url(#SVGID_2_)"
   id="path14"
   inkscape:connector-curvature="0"
   style="fill:#4967a9" />
	<path
   class="st0"
   d="M 22.7,8.9 V 8.2 c 0,-2.4 1.3,-3.9 4.1,-3.9 2.6,0 3.7,1.6 3.7,3.9 v 1.3 h -5.3 c 0.1,1.1 0.6,1.6 2,1.6 0.9,0 1.9,-0.2 2.7,-0.5 l 0.5,1.7 c -0.7,0.3 -2,0.6 -3.2,0.6 -3.3,0 -4.5,-1.5 -4.5,-4 m 2.5,-1.1 h 3 V 7.6 C 28.2,6.7 27.8,6 26.7,6 c -1,0 -1.5,0.7 -1.5,1.8"
   clip-path="url(#SVGID_2_)"
   id="path16"
   inkscape:connector-curvature="0"
   style="fill:#4967a9" />
	<path
   class="st0"
   d="m 39.9,8.9 c 0,2.3 -1.1,4.1 -3.4,4.1 -1.3,0 -2.1,-0.6 -2.5,-1.4 v 1.3 H 31.6 V 0.2 L 34.1,0 v 5.6 c 0.4,-0.7 1.2,-1.3 2.3,-1.3 2.3,0 3.4,1.7 3.4,4.1 M 37.4,8.3 c 0,-1.2 -0.5,-2 -1.7,-2 -1,0 -1.6,0.7 -1.6,1.9 V 9 c 0,1.2 0.6,1.9 1.6,1.9 1.2,0 1.7,-0.9 1.7,-2 z"
   clip-path="url(#SVGID_2_)"
   id="path18"
   inkscape:connector-curvature="0"
   style="fill:#4967a9" />
	<path
   class="st0"
   d="M 40.7,8.8 V 8.4 C 40.7,6 42.1,4.3 44.8,4.3 47.6,4.3 49,6 49,8.4 v 0.4 c 0,2.4 -1.4,4.1 -4.1,4.1 -2.8,0 -4.2,-1.7 -4.2,-4.1 m 5.8,-0.6 c 0,-1.1 -0.5,-2 -1.6,-2 -1.2,0 -1.6,0.9 -1.6,2 V 9 c 0,1.1 0.5,2 1.6,2 1.2,0 1.6,-0.9 1.6,-2 z"
   clip-path="url(#SVGID_2_)"
   id="path20"
   inkscape:connector-curvature="0"
   style="fill:#4967a9" />
	<path
   class="st0"
   d="M 49.8,8.8 V 8.4 C 49.8,6 51.2,4.3 53.9,4.3 56.7,4.3 58,6 58,8.4 v 0.4 c 0,2.4 -1.4,4.1 -4.1,4.1 -2.7,0 -4.1,-1.7 -4.1,-4.1 m 5.8,-0.6 c 0,-1.1 -0.5,-2 -1.6,-2 -1.2,0 -1.6,0.9 -1.6,2 V 9 c 0,1.1 0.5,2 1.6,2 1.2,0 1.6,-0.9 1.6,-2 z"
   clip-path="url(#SVGID_2_)"
   id="path22"
   inkscape:connector-curvature="0"
   style="fill:#4967a9" />
	<polyline
   class="st0"
   points="61.6,8.4 64.1,4.4 66.8,4.4 64.1,8.5 66.9,12.8 64.2,12.8 61.6,8.7 61.6,12.8 59.1,12.8 59.1,0.2    61.6,0  "
   clip-path="url(#SVGID_2_)"
   id="polyline24"
   style="fill:#4967a9" />
</g>
</svg>