<?xml version="1.0" encoding="UTF-8" standalone="no"?>
<!-- Created with Inkscape (http://www.inkscape.org/) -->

<svg
   xmlns:dc="http://purl.org/dc/elements/1.1/"
   xmlns:cc="http://creativecommons.org/ns#"
   xmlns:rdf="http://www.w3.org/1999/02/22-rdf-syntax-ns#"
   xmlns:svg="http://www.w3.org/2000/svg"
   xmlns="http://www.w3.org/2000/svg"
   xmlns:sodipodi="http://sodipodi.sourceforge.net/DTD/sodipodi-0.dtd"
   xmlns:inkscape="http://www.inkscape.org/namespaces/inkscape"
   id="svg2"
   version="1.1"
   inkscape:version="0.92.4 5da689c313, 2019-01-14"
   width="313.70099"
   height="164.45035"
   xml:space="preserve"
   sodipodi:docname="sncf.svg"><metadata
     id="metadata8"><rdf:RDF><cc:Work
         rdf:about=""><dc:format>image/svg+xml</dc:format><dc:type
           rdf:resource="http://purl.org/dc/dcmitype/StillImage" /><dc:title></dc:title></cc:Work></rdf:RDF></metadata><defs
     id="defs6"><linearGradient
       x1="0"
       y1="0"
       x2="1"
       y2="0"
       gradientUnits="userSpaceOnUse"
       gradientTransform="matrix(250.64394,0,0,-250.64394,118.06927,112.77049)"
       spreadMethod="pad"
       id="linearGradient128"><stop
         style="stop-opacity:1;stop-color:#7c2270"
         offset="0"
         id="stop130" /><stop
         style="stop-opacity:1;stop-color:#aa147e"
         offset="0.247191"
         id="stop132" /><stop
         style="stop-opacity:1;stop-color:#e41d25"
         offset="0.814607"
         id="stop134" /><stop
         style="stop-opacity:1;stop-color:#e41d25"
         offset="1"
         id="stop136" /></linearGradient><clipPath
       clipPathUnits="userSpaceOnUse"
       id="clipPath144"><path
         d="M 0,0 H 311.811 V 510.236 H 0 Z"
         id="path146"
         inkscape:connector-curvature="0" /></clipPath></defs><sodipodi:namedview
     pagecolor="#ffffff"
     bordercolor="#666666"
     borderopacity="1"
     objecttolerance="10"
     gridtolerance="10"
     guidetolerance="10"
     inkscape:pageopacity="0"
     inkscape:pageshadow="2"
     inkscape:window-width="1366"
     inkscape:window-height="708"
     id="namedview4"
     showgrid="false"
     fit-margin-top="0"
     fit-margin-left="0"
     fit-margin-right="0"
     fit-margin-bottom="0"
     inkscape:zoom="1.0465884"
     inkscape:cx="99.126416"
     inkscape:cy="121.99036"
     inkscape:window-x="0"
     inkscape:window-y="31"
     inkscape:window-maximized="1"
     inkscape:current-layer="g10" /><g
     id="g10"
     inkscape:groupmode="layer"
     inkscape:label="guide-tgv-loisir"
     transform="matrix(1.25,0,0,-1.25,-147.58736,131.35561)"><path
       d="m 122.67731,104.77174 c -2.79238,-0.11728 -4.60742,-1.40736 -4.60742,-4.16623 v 0 -122.99884 c 0,-2.144551 1.53581,-4.082463 3.90375,-4.082463 v 0 H 341.5442 c 1.97143,0 3.54632,0.178713 4.4734,2.781213 v 0 c 0,0 22.25529,69.647588 22.64622,70.90416 v 0 c 0.82655,2.630424 0.29041,3.965182 -1.95466,5.394882 v 0 C 295.19625,98.427448 188.25919,105.08449 139.68851,105.08449 v 0 c -6.96421,0 -12.71651,-0.13962 -17.0112,-0.31275"
       style="fill:url(#linearGradient128);stroke:none;stroke-width:1.48365998"
       id="path138"
       inkscape:connector-curvature="0" /><g
       id="g140"
       transform="matrix(5.5847638,0,0,5.5847638,-1235.0234,-242.27106)"
       style="stroke-width:0.2656621"><g
         id="g142"
         clip-path="url(#clipPath144)"
         style="stroke-width:0.2656621"><g
           id="g148"
           transform="translate(267.3338,44.7764)"
           style="stroke-width:0.2656621"><path
             d="m 0,0 c -0.55,0.641 -0.768,1.468 -0.632,2.39 0.324,2.199 2.464,3.589 5.327,3.589 0.603,0 1.224,-0.038 1.782,-0.109 L 7.043,7.529 C 6.353,7.635 5.517,7.68 4.697,7.68 2.158,7.68 -0.05,6.806 -1.481,5.265 -1.526,5.217 -1.572,5.218 -1.6,5.218 c -0.044,0 -0.074,0.008 -0.062,0.047 l 0.717,2.249 H -3.041 L -5.335,0.317 c -0.73,2.124 -2.232,4.917 -4.069,7.197 h -2.251 l -1.683,-5.239 c 0.846,-0.629 1.114,-1.083 1.335,-1.729 0.013,-0.038 0.04,-0.046 0.081,-0.046 0.041,0 0.061,0.01 0.072,0.046 0.016,0.05 1.468,4.553 1.468,4.553 1.481,-2.119 2.951,-4.907 3.739,-7.851 h 2.414 l 1.194,3.73 c 0.013,0.038 0.039,0.046 0.079,0.046 0.042,0 0.069,-0.011 0.074,-0.046 0.363,-2.342 2.692,-3.916 5.993,-3.916 2.134,0 4.063,0.56 4.543,0.817 l 1.251,3.94 h 4.804 l 0.489,1.526 H 9.393 l 0.829,2.587 h 5.725 l 0.499,1.582 H 8.404 L 5.674,-1.019 C 5.095,-1.165 4.379,-1.237 3.631,-1.237 2.02,-1.237 0.73,-0.854 0,0 m -13.558,5.939 0.478,1.503 c -0.687,0.126 -1.178,0.191 -1.998,0.21 -2.636,0.061 -5.019,-0.666 -5.632,-2.206 -0.726,-1.826 1.334,-2.853 3.119,-3.699 1.417,-0.672 2.537,-1.311 2.143,-2.148 -0.306,-0.649 -1.309,-0.957 -2.767,-0.924 -1.263,0.03 -2.838,0.392 -4.079,1.017 l -0.738,-1.596 c 0.913,-0.424 2.795,-1 4.401,-1.037 3.016,-0.069 4.969,0.69 5.751,2.332 0.925,1.944 -1.37,3.007 -3.213,3.897 -1.443,0.697 -2.427,1.061 -2.19,1.762 0.28,0.83 1.731,1.145 3.046,1.115 0.665,-0.016 1.138,-0.101 1.679,-0.226"
             style="fill:#ffffff;fill-opacity:1;fill-rule:nonzero;stroke:none;stroke-width:0.2656621"
             id="path150"
             inkscape:connector-curvature="0" /></g></g></g></g></svg>