<?xml version="1.0" encoding="UTF-8" standalone="no"?>
<!-- Created with Inkscape (http://www.inkscape.org/) -->

<svg
   xmlns:dc="http://purl.org/dc/elements/1.1/"
   xmlns:cc="http://creativecommons.org/ns#"
   xmlns:rdf="http://www.w3.org/1999/02/22-rdf-syntax-ns#"
   xmlns:svg="http://www.w3.org/2000/svg"
   xmlns="http://www.w3.org/2000/svg"
   version="1.1"
   width="442.91336"
   height="597.04724"
   id="svg3527"
   xml:space="preserve"><metadata
     id="metadata3533"><rdf:RDF><cc:Work
         rdf:about=""><dc:format>image/svg+xml</dc:format><dc:type
           rdf:resource="http://purl.org/dc/dcmitype/StillImage" /><dc:title></dc:title></cc:Work></rdf:RDF></metadata><defs
     id="defs3531" /><g
     transform="matrix(1.25,0,0,-1.25,0,597.04723)"
     id="g3535"><g
       transform="matrix(1,0,0,-1,0,477.63779)"
       id="g3539"><path
         d="m 28.348,0 0,15.59"
         id="path3541"
         style="fill:none;stroke:#000000;stroke-width:0.80000001;stroke-linecap:butt;stroke-linejoin:miter;stroke-miterlimit:4;stroke-opacity:1;stroke-dasharray:none" /></g><g
       transform="matrix(1,0,0,-1,0,477.63779)"
       id="g3543"><path
         d="m 0,29.766 14.172,0"
         id="path3545"
         style="fill:none;stroke:#000000;stroke-width:0.80000001;stroke-linecap:butt;stroke-linejoin:miter;stroke-miterlimit:4;stroke-opacity:1;stroke-dasharray:none" /></g><g
       transform="matrix(1,0,0,-1,0,477.63779)"
       id="g3547"><path
         d="m 325.984,0 0,15.59"
         id="path3549"
         style="fill:none;stroke:#000000;stroke-width:0.80000001;stroke-linecap:butt;stroke-linejoin:miter;stroke-miterlimit:4;stroke-opacity:1;stroke-dasharray:none" /></g><g
       transform="matrix(1,0,0,-1,0,477.63779)"
       id="g3551"><path
         d="m 354.332,29.766 -14.176,0"
         id="path3553"
         style="fill:none;stroke:#000000;stroke-width:0.80000001;stroke-linecap:butt;stroke-linejoin:miter;stroke-miterlimit:4;stroke-opacity:1;stroke-dasharray:none" /></g><g
       transform="matrix(1,0,0,-1,0,477.63779)"
       id="g3555"><path
         d="m 325.984,477.637 0,-14.172"
         id="path3557"
         style="fill:none;stroke:#000000;stroke-width:0.80000001;stroke-linecap:butt;stroke-linejoin:miter;stroke-miterlimit:4;stroke-opacity:1;stroke-dasharray:none" /></g><g
       transform="matrix(1,0,0,-1,0,477.63779)"
       id="g3559"><path
         d="m 340.156,449.293 14.176,0"
         id="path3561"
         style="fill:none;stroke:#000000;stroke-width:0.80000001;stroke-linecap:butt;stroke-linejoin:miter;stroke-miterlimit:4;stroke-opacity:1;stroke-dasharray:none" /></g><g
       transform="matrix(1,0,0,-1,0,477.63779)"
       id="g3563"><path
         d="m 28.348,463.465 0,14.172"
         id="path3565"
         style="fill:none;stroke:#000000;stroke-width:0.80000001;stroke-linecap:butt;stroke-linejoin:miter;stroke-miterlimit:4;stroke-opacity:1;stroke-dasharray:none" /></g><g
       transform="matrix(1,0,0,-1,0,477.63779)"
       id="g3567"><path
         d="M 14.172,449.293 0,449.293"
         id="path3569"
         style="fill:none;stroke:#000000;stroke-width:0.80000001;stroke-linecap:butt;stroke-linejoin:miter;stroke-miterlimit:4;stroke-opacity:1;stroke-dasharray:none" /></g><g
       transform="matrix(1,0,0,-1,23.295614,483.70946)"
       id="g4355"><path
         d="m 28.348,0 0,15.59"
         id="path4357"
         style="fill:none;stroke:#000000;stroke-width:0.80000001;stroke-linecap:butt;stroke-linejoin:miter;stroke-miterlimit:4;stroke-opacity:1;stroke-dasharray:none" /></g><g
       transform="matrix(1,0,0,-1,46.5399,483.70946)"
       id="g4359"><path
         d="m 28.348,0 0,15.59"
         id="path4361"
         style="fill:none;stroke:#000000;stroke-width:0.80000001;stroke-linecap:butt;stroke-linejoin:miter;stroke-miterlimit:4;stroke-opacity:1;stroke-dasharray:none" /></g><g
       transform="matrix(1,0,0,-1,274.33809,483.70946)"
       id="g4363"><path
         d="m 28.348,0 0,15.59"
         id="path4365"
         style="fill:none;stroke:#000000;stroke-width:0.80000001;stroke-linecap:butt;stroke-linejoin:miter;stroke-miterlimit:4;stroke-opacity:1;stroke-dasharray:none" /></g><g
       transform="matrix(1,0,0,-1,251.00012,483.70946)"
       id="g4367"><path
         d="m 28.348,0 0,15.59"
         id="path4369"
         style="fill:none;stroke:#000000;stroke-width:0.80000001;stroke-linecap:butt;stroke-linejoin:miter;stroke-miterlimit:4;stroke-opacity:1;stroke-dasharray:none" /></g><g
       transform="matrix(1,0,0,-1,23.295614,9.107501)"
       id="g4371"><path
         d="m 28.348,0 0,15.59"
         id="path4373"
         style="fill:none;stroke:#000000;stroke-width:0.80000001;stroke-linecap:butt;stroke-linejoin:miter;stroke-miterlimit:4;stroke-opacity:1;stroke-dasharray:none" /></g><g
       transform="matrix(1,0,0,-1,46.5399,9.107501)"
       id="g4375"><path
         d="m 28.348,0 0,15.59"
         id="path4377"
         style="fill:none;stroke:#000000;stroke-width:0.80000001;stroke-linecap:butt;stroke-linejoin:miter;stroke-miterlimit:4;stroke-opacity:1;stroke-dasharray:none" /></g><g
       transform="matrix(1,0,0,-1,274.33809,9.107501)"
       id="g4379"><path
         d="m 28.348,0 0,15.59"
         id="path4381"
         style="fill:none;stroke:#000000;stroke-width:0.80000001;stroke-linecap:butt;stroke-linejoin:miter;stroke-miterlimit:4;stroke-opacity:1;stroke-dasharray:none" /></g><g
       transform="matrix(1,0,0,-1,251.00012,9.107501)"
       id="g4383"><path
         d="m 28.348,0 0,15.59"
         id="path4385"
         style="fill:none;stroke:#000000;stroke-width:0.80000001;stroke-linecap:butt;stroke-linejoin:miter;stroke-miterlimit:4;stroke-opacity:1;stroke-dasharray:none" /></g></g></svg>